<svg width="25" height="25" viewBox="0 0 25 25" fill="none" xmlns="http://www.w3.org/2000/svg">
<g clip-path="url(#clip0_2_15)">
<path d="M21.875 0H3.125C1.40588 0 0 1.40735 0 3.125V21.875C0 23.5956 1.40588 25 3.125 25H12.6088V16.0353H9.61324V12.1309H12.6088V10.175C12.6088 7.15882 14.8338 4.79706 17.675 4.79706H20.4353V9.20588H17.9662C17.3221 9.20588 17.1294 9.57647 17.1294 10.0897V12.1309H20.4353V16.0353H17.1294V25H21.875C23.5956 25 25 23.5956 25 21.875V3.125C25 1.40735 23.5956 0 21.875 0Z" fill="black"/>
</g>
<defs>
<clipPath id="clip0_2_15">
<rect width="25" height="25" fill="white"/>
</clipPath>
</defs>
</svg>
