<svg width="25" height="25" viewBox="0 0 25 25" fill="none" xmlns="http://www.w3.org/2000/svg">
<g clip-path="url(#clip0_2_19)">
<path d="M25 5.18195C24.0791 5.58889 23.0916 5.86528 22.0541 5.98889C23.1125 5.35417 23.9263 4.34861 24.3083 3.15278C23.3194 3.74028 22.2208 4.16667 21.0527 4.39583C20.1166 3.4 18.7819 2.77778 17.3083 2.77778C14.4763 2.77778 12.1791 5.07222 12.1791 7.90556C12.1791 8.30695 12.2236 8.69861 12.3125 9.075C8.04856 8.85972 4.2694 6.81806 1.74023 3.71667C1.29856 4.47361 1.04579 5.35556 1.04579 6.29306C1.04579 8.07361 1.95134 9.64306 3.32773 10.5625C2.48745 10.5361 1.69579 10.3056 1.00412 9.92222C1.00412 9.94306 1.00412 9.96389 1.00412 9.98611C1.00412 12.4708 2.77218 14.5458 5.11801 15.0153C4.68745 15.1319 4.23468 15.1944 3.76662 15.1944C3.43745 15.1944 3.11523 15.1653 2.80273 15.1042C3.45412 17.1431 5.34995 18.625 7.59301 18.6667C5.83884 20.0417 3.62773 20.8611 1.22495 20.8611C0.809676 20.8611 0.402732 20.8361 0.00134277 20.7875C2.27079 22.2444 4.96662 23.0917 7.86384 23.0917C17.2972 23.0917 22.4569 15.2764 22.4569 8.5C22.4569 8.27639 22.4513 8.05417 22.4402 7.83472C23.4416 7.11528 24.3125 6.21111 25 5.18195Z" fill="black"/>
</g>
<defs>
<clipPath id="clip0_2_19">
<rect width="25" height="25" fill="white"/>
</clipPath>
</defs>
</svg>
