<svg width="37" height="37" viewBox="0 0 37 37" fill="none" xmlns="http://www.w3.org/2000/svg">
<g clip-path="url(#clip0_2_51)">
<path d="M18.5 37C28.7173 37 37 28.7173 37 18.5C37 8.28273 28.7173 0 18.5 0C8.28273 0 0 8.28273 0 18.5C0 28.7173 8.28273 37 18.5 37Z" fill="#FAC960"/>
<path opacity="0.3" d="M24.2809 16.9309L26.1186 13.977L18.4027 11.0472L22.4289 6.54963L20.6858 4.82776L12.7212 10.0228L14.3595 11.831L12.7212 13.977L18.4582 17.8093L11.2097 23.6601L19.0441 30.307L28.0022 19.2043L24.2809 16.9309Z" fill="white"/>
<path d="M15.072 21.9088C12.234 21.9088 9.93311 24.2096 9.93311 27.0477C9.93311 29.8857 12.234 32.1866 15.072 32.1866C17.91 32.1866 20.2109 29.8857 20.2109 27.0477C20.2109 24.2096 17.91 21.9088 15.072 21.9088ZM24.6646 13.6866C22.583 13.6866 20.8961 15.3735 20.8961 17.4551C20.8961 19.5367 22.583 21.2236 24.6646 21.2236C26.7462 21.2236 28.4331 19.5367 28.4331 17.4551C28.4331 15.3735 26.7455 13.6866 24.6646 13.6866ZM14.2196 14.4841C15.5914 14.4841 16.7034 13.3721 16.7034 12.0003C16.7034 10.6286 15.5914 9.51652 14.2196 9.51652C12.8479 9.51652 11.7358 10.6286 11.7358 12.0003C11.7358 13.3721 12.8479 14.4841 14.2196 14.4841ZM22.8132 5.65961C22.8132 4.98128 22.2637 4.43176 21.5854 4.43176C20.907 4.43176 20.3575 4.98128 20.3575 5.65961C20.3575 6.33795 20.907 6.88747 21.5854 6.88747C22.2637 6.88747 22.8132 6.33795 22.8132 5.65961Z" fill="white"/>
</g>
<defs>
<clipPath id="clip0_2_51">
<rect width="37" height="37" fill="white"/>
</clipPath>
</defs>
</svg>
