<svg width="123" height="503" viewBox="0 0 123 503" fill="none" xmlns="http://www.w3.org/2000/svg">
<path d="M60.1049 422.063C61.8124 414.778 65.3413 409.143 70.6915 405.159C75.928 401.061 82.0181 399.012 88.9621 399.012C99.5487 399.012 107.745 402.541 113.55 409.598C119.242 416.542 122.088 426.56 122.088 439.651L122.088 503L1.19527 503L1.19527 441.358C1.19527 429.064 3.87039 419.388 9.22063 412.33C14.5709 405.273 22.3686 401.744 32.6137 401.744C39.6715 401.744 45.6478 403.622 50.5427 407.379C55.3238 411.021 58.5112 415.916 60.1049 422.063ZM48.323 465.093L48.323 450.408C48.323 446.993 47.64 444.489 46.2739 442.895C44.9079 441.188 42.802 440.334 39.9561 440.334C36.9964 440.334 34.8335 441.188 33.4675 442.895C31.9876 444.489 31.2477 446.993 31.2477 450.408L31.2477 465.093L48.323 465.093ZM91.6941 447.847C91.6941 444.432 91.068 441.928 89.8158 440.334C88.4498 438.626 86.2869 437.773 83.3272 437.773C77.5216 437.773 74.6189 441.131 74.6189 447.847L74.6189 465.093L91.6941 465.093L91.6941 447.847Z" fill="#F1BBA4"/>
<path d="M31.4185 341.537L46.2739 341.537L46.2739 303.972L74.7896 303.972L74.7896 341.537L91.8649 341.537L91.8649 298.849L122.088 298.849L122.088 379.445L1.19527 379.445L1.19526 298.849L31.4185 298.849L31.4185 341.537Z" fill="#F1BBA4"/>
<path d="M1.19526 239.826L122.088 239.826L122.088 277.733L1.19526 277.733L1.19526 239.826Z" fill="#F1BBA4"/>
<path d="M42.5174 141.769C40.1268 143.249 38.3055 145.355 37.0533 148.087C35.6873 150.819 35.0042 154.12 35.0042 157.991C35.0043 165.276 37.3948 170.911 42.1759 174.895C46.8431 178.879 53.2748 180.871 61.4709 180.871C70.9192 180.871 77.977 178.652 82.6442 174.212C87.3115 169.772 89.6451 162.942 89.6451 153.722C89.6451 144.956 86.1162 137.899 79.0584 132.548L79.0584 162.772L52.2503 162.772L52.2503 101.13L90.1573 101.13C99.1503 106.366 106.891 113.595 113.38 122.815C119.754 132.036 122.942 143.704 122.942 157.82C122.942 170.342 120.381 181.27 115.258 190.604C110.022 199.825 102.736 206.94 93.4016 211.948C84.0672 216.843 73.4236 219.291 61.4709 219.291C49.5182 219.291 38.8746 216.843 29.5402 211.948C20.2057 206.94 12.9772 199.825 7.8546 190.604C2.61819 181.384 -1.4531e-05 170.569 -1.50734e-05 158.161C-1.5765e-05 142.338 3.81346 129.475 11.4404 119.571C19.0674 109.554 29.4263 103.634 42.5174 101.813L42.5174 141.769Z" fill="#F1BBA4"/>
<path d="M31.4184 42.7405L46.2739 42.7405L46.2739 5.17499L74.7896 5.17498L74.7896 42.7405L91.8648 42.7405L91.8648 0.0524252L122.088 0.0524239L122.088 80.6476L1.19525 80.6476L1.19525 0.0524291L31.4184 0.0524278L31.4184 42.7405Z" fill="#F1BBA4"/>
</svg>
