<svg width="121" height="503" viewBox="0 0 121 503" fill="none" xmlns="http://www.w3.org/2000/svg">
<path d="M58.8551 421.799C60.5347 414.545 64.0059 408.935 69.2686 404.969C74.4193 400.889 80.4099 398.849 87.2402 398.849C97.6537 398.849 105.716 402.362 111.426 409.389C117.025 416.302 119.824 426.275 119.824 439.309L119.824 502.379L0.90918 502.379L0.909177 441.009C0.909176 428.769 3.54054 419.135 8.80326 412.109C14.066 405.082 21.7361 401.569 31.8137 401.569C38.756 401.569 44.6346 403.439 49.4494 407.179C54.1522 410.805 57.2875 415.679 58.8551 421.799ZM47.2659 464.639L47.2659 450.019C47.2659 446.619 46.5941 444.125 45.2504 442.539C43.9067 440.839 41.8352 439.989 39.0359 439.989C36.1246 439.989 33.9971 440.839 32.6535 442.539C31.1978 444.125 30.47 446.619 30.47 450.019L30.47 464.639L47.2659 464.639ZM89.9276 447.469C89.9276 444.069 89.3117 441.575 88.08 439.989C86.7363 438.289 84.6088 437.439 81.6976 437.439C75.9869 437.439 73.1316 440.782 73.1316 447.469L73.1316 464.639L89.9276 464.639L89.9276 447.469Z" fill="#7CBFC7"/>
<path d="M91.6071 316.128L91.6071 279.748L119.824 279.748L119.824 353.868L0.909173 353.868L0.909172 316.128L91.6071 316.128Z" fill="#7CBFC7"/>
<path d="M0.909166 198.682L67.9249 198.682C73.4116 198.682 77.7785 197.492 81.0257 195.112C84.1609 192.618 85.7286 188.652 85.7286 183.212C85.7286 177.772 84.1609 173.748 81.0257 171.142C77.7785 168.535 73.4116 167.232 67.9249 167.232L0.909165 167.232L0.909163 129.662L67.9249 129.662C79.2341 129.662 88.9198 132.042 96.9818 136.802C104.932 141.562 110.922 148.078 114.953 156.352C118.984 164.625 121 173.862 121 184.062C121 194.262 118.984 203.328 114.953 211.262C110.922 219.082 104.932 225.202 96.9818 229.622C89.0318 234.042 79.3461 236.252 67.9249 236.252L0.909168 236.252L0.909166 198.682Z" fill="#7CBFC7"/>
<path d="M30.6379 43.3441L45.2504 43.3441L45.2504 5.94412L73.2996 5.94412L73.2996 43.3441L90.0955 43.3441L90.0955 0.844143L119.824 0.844142L119.824 81.0841L0.909161 81.0841L0.909158 0.844147L30.6379 0.844145L30.6379 43.3441Z" fill="#7CBFC7"/>
</svg>
