<svg width="121" height="513" viewBox="0 0 121 513" fill="none" xmlns="http://www.w3.org/2000/svg">
<path d="M41.9499 414.018C49.5432 414.018 56.4566 415.775 62.6899 419.288C68.8099 422.801 73.6832 428.015 77.3099 434.928C80.9366 441.728 82.7499 450.001 82.7499 459.748L82.7499 474.708L121 474.708L121 512.448L0.639893 512.448L0.63989 459.748C0.63989 445.015 4.37988 433.738 11.8599 425.918C19.3399 417.985 29.3699 414.018 41.9499 414.018ZM52.9999 463.998C52.9999 456.178 49.3166 452.268 41.9499 452.268C34.5832 452.268 30.8999 456.178 30.8999 463.998L30.8999 474.708L52.9999 474.708L52.9999 463.998Z" fill="#C78DA8"/>
<path d="M0.639885 332.008L121 332.008L121 369.748L0.639886 369.748L0.639885 332.008Z" fill="#C78DA8"/>
<path d="M121 167.233L121 204.972L60.4799 244.923L121 244.923L121 282.663L0.639883 282.663L0.639881 244.923L62.1799 204.973L0.639879 204.973L0.639877 167.233L121 167.233Z" fill="#C78DA8"/>
<path d="M121 45.122L68.8099 80.1421L121 80.1421L121 117.882L0.639875 117.882L0.639874 80.1421L51.2999 80.1421L0.639872 45.632L0.63987 2.96204L58.2699 44.442L121 0.24206L121 45.122Z" fill="#C78DA8"/>
</svg>
