<svg width="121" height="387" viewBox="0 0 121 387" fill="none" xmlns="http://www.w3.org/2000/svg">
<path d="M121 325.624L77.82 348.234L77.82 348.404L121 348.404L121 386.144L0.640015 386.144L0.640012 330.044C0.640012 320.297 2.39667 311.967 5.91 305.054C9.31 298.14 14.0133 292.984 20.02 289.584C25.9133 286.07 32.6 284.314 40.08 284.314C48.1267 284.314 55.2667 286.58 61.5 291.114C67.7333 295.534 72.21 301.937 74.93 310.324L121 284.144L121 325.624ZM52.66 348.404L52.66 333.444C52.66 329.817 51.8667 327.097 50.28 325.284C48.58 323.47 45.9733 322.564 42.46 322.564C39.2867 322.564 36.7933 323.527 34.98 325.454C33.1667 327.267 32.26 329.93 32.26 333.444L32.26 348.404L52.66 348.404Z" fill="#91191E"/>
<path d="M30.73 202.217L45.52 202.217L45.52 164.817L73.91 164.817L73.91 202.217L90.91 202.217L90.91 159.717L121 159.717L121 239.957L0.640008 239.957L0.640005 159.717L30.73 159.717L30.73 202.217Z" fill="#91191E"/>
<path d="M0.640001 63.0441C0.64 50.4641 3.19 39.4708 8.28999 30.0641C13.39 20.5442 20.4733 13.2342 29.54 8.13415C38.6067 3.03415 48.92 0.484129 60.48 0.484128C71.9267 0.484128 82.24 3.03415 91.42 8.13415C100.6 13.2342 107.853 20.5442 113.18 30.0641C118.393 39.4708 121 50.4641 121 63.0441L121 113.194L0.640003 113.194L0.640001 63.0441ZM87.34 66.4441C87.34 57.9441 85.0167 51.2008 80.37 46.2141C75.7233 41.2274 69.0933 38.7341 60.48 38.7341C51.8667 38.7341 45.2367 41.2274 40.59 46.2141C35.9433 51.2008 33.62 57.9442 33.62 66.4442L33.62 75.4542L87.34 75.4542L87.34 66.4441Z" fill="#91191E"/>
</svg>
